<mxfile host="app.diagrams.net" modified="2020-09-03T20:56:05.972Z" agent="5.0 (Windows NT 10.0; Win64; x64) AppleWebKit/537.36 (KHTML, like Gecko) Chrome/84.0.4147.135 Safari/537.36" etag="fPDGtYpx9fFPF4EQasNJ" version="13.6.6" type="github">
  <diagram id="qtmGlHJncrGtfLcL_spS" name="Page-1">
    <mxGraphModel dx="1108" dy="1788" grid="1" gridSize="10" guides="1" tooltips="1" connect="1" arrows="1" fold="1" page="1" pageScale="1" pageWidth="850" pageHeight="1100" math="0" shadow="0">
      <root>
        <mxCell id="0" />
        <mxCell id="1" parent="0" />
        <mxCell id="7HSmxfzW1K2u2CFpWe66-99" value="" style="edgeStyle=orthogonalEdgeStyle;rounded=0;orthogonalLoop=1;jettySize=auto;html=1;" edge="1" parent="1" source="7HSmxfzW1K2u2CFpWe66-1" target="7HSmxfzW1K2u2CFpWe66-94">
          <mxGeometry relative="1" as="geometry" />
        </mxCell>
        <mxCell id="7HSmxfzW1K2u2CFpWe66-1" value="&lt;div style=&quot;box-sizing: border-box&quot;&gt;&lt;font style=&quot;font-size: 12px&quot;&gt;This structure is a many Parks to many DoITT match.&lt;/font&gt;&lt;/div&gt;" style="rounded=0;whiteSpace=wrap;html=1;fillColor=#dae8fc;strokeColor=#6c8ebf;" vertex="1" parent="1">
          <mxGeometry x="660" y="160" width="120" height="60" as="geometry" />
        </mxCell>
        <mxCell id="7HSmxfzW1K2u2CFpWe66-98" value="" style="edgeStyle=orthogonalEdgeStyle;rounded=0;orthogonalLoop=1;jettySize=auto;html=1;" edge="1" parent="1" source="7HSmxfzW1K2u2CFpWe66-2" target="7HSmxfzW1K2u2CFpWe66-93">
          <mxGeometry relative="1" as="geometry" />
        </mxCell>
        <mxCell id="7HSmxfzW1K2u2CFpWe66-2" value="&lt;div style=&quot;box-sizing: border-box ; font-family: &amp;#34;segoe ui&amp;#34; , , &amp;#34;apple color emoji&amp;#34; , &amp;#34;segoe ui emoji&amp;#34; , sans-serif&quot;&gt;One Parks structure matches multiple DoITT structures.&lt;/div&gt;" style="rounded=0;whiteSpace=wrap;html=1;fillColor=#dae8fc;strokeColor=#6c8ebf;" vertex="1" parent="1">
          <mxGeometry x="510" y="160" width="120" height="60" as="geometry" />
        </mxCell>
        <mxCell id="7HSmxfzW1K2u2CFpWe66-97" value="" style="edgeStyle=orthogonalEdgeStyle;rounded=0;orthogonalLoop=1;jettySize=auto;html=1;" edge="1" parent="1" source="7HSmxfzW1K2u2CFpWe66-3" target="7HSmxfzW1K2u2CFpWe66-90">
          <mxGeometry relative="1" as="geometry" />
        </mxCell>
        <mxCell id="7HSmxfzW1K2u2CFpWe66-3" value="&lt;div style=&quot;box-sizing: border-box ; font-family: &amp;#34;segoe ui&amp;#34; , , &amp;#34;apple color emoji&amp;#34; , &amp;#34;segoe ui emoji&amp;#34; , sans-serif&quot;&gt;One DoITT structure match multiple Parks structures&lt;/div&gt;" style="rounded=0;whiteSpace=wrap;html=1;fillColor=#dae8fc;strokeColor=#6c8ebf;" vertex="1" parent="1">
          <mxGeometry x="360" y="160" width="130" height="60" as="geometry" />
        </mxCell>
        <mxCell id="7HSmxfzW1K2u2CFpWe66-4" value="Start: tlb_duplicate_review contains records that are exceptions and includes records that are one-to-many, many-to-one, many-to-many, or a parks structure that overlaps other parks structures.&amp;nbsp;&lt;br&gt;&lt;br&gt;Changes need to be made in AMPS and/or GIS.&amp;nbsp;" style="text;html=1;strokeColor=none;fillColor=none;align=left;verticalAlign=middle;whiteSpace=wrap;rounded=0;fontStyle=1" vertex="1" parent="1">
          <mxGeometry x="60" y="-20" width="600" height="20" as="geometry" />
        </mxCell>
        <mxCell id="7HSmxfzW1K2u2CFpWe66-96" value="" style="edgeStyle=orthogonalEdgeStyle;rounded=0;orthogonalLoop=1;jettySize=auto;html=1;" edge="1" parent="1" source="7HSmxfzW1K2u2CFpWe66-6" target="7HSmxfzW1K2u2CFpWe66-89">
          <mxGeometry relative="1" as="geometry" />
        </mxCell>
        <mxCell id="7HSmxfzW1K2u2CFpWe66-6" value="&lt;div style=&quot;box-sizing: border-box ; font-family: &amp;#34;segoe ui&amp;#34; , , &amp;#34;apple color emoji&amp;#34; , &amp;#34;segoe ui emoji&amp;#34; , sans-serif ; font-size: 14px&quot;&gt;&lt;div style=&quot;box-sizing: border-box ; font-family: &amp;#34;segoe ui&amp;#34; , , &amp;#34;apple color emoji&amp;#34; , &amp;#34;segoe ui emoji&amp;#34; , sans-serif ; font-size: 12px&quot;&gt;Parks structure overlapping another Parks structure&lt;/div&gt;&lt;/div&gt;" style="rounded=0;whiteSpace=wrap;html=1;fillColor=#dae8fc;strokeColor=#6c8ebf;" vertex="1" parent="1">
          <mxGeometry x="210" y="160" width="120" height="60" as="geometry" />
        </mxCell>
        <mxCell id="7HSmxfzW1K2u2CFpWe66-95" value="" style="edgeStyle=orthogonalEdgeStyle;rounded=0;orthogonalLoop=1;jettySize=auto;html=1;" edge="1" parent="1" source="7HSmxfzW1K2u2CFpWe66-8" target="7HSmxfzW1K2u2CFpWe66-88">
          <mxGeometry relative="1" as="geometry" />
        </mxCell>
        <mxCell id="7HSmxfzW1K2u2CFpWe66-8" value="&lt;div style=&quot;box-sizing: border-box ; font-family: &amp;#34;segoe ui&amp;#34; , , &amp;#34;apple color emoji&amp;#34; , &amp;#34;segoe ui emoji&amp;#34; , sans-serif ; font-size: 14px&quot;&gt;&lt;div style=&quot;box-sizing: border-box ; font-family: &amp;#34;segoe ui&amp;#34; , , &amp;#34;apple color emoji&amp;#34; , &amp;#34;segoe ui emoji&amp;#34; , sans-serif ; font-size: 12px&quot;&gt;Duplicate value in the SYSTEM column of ParksGIS structures&lt;/div&gt;&lt;/div&gt;" style="rounded=0;whiteSpace=wrap;html=1;fillColor=#dae8fc;strokeColor=#6c8ebf;" vertex="1" parent="1">
          <mxGeometry x="65" y="160" width="120" height="60" as="geometry" />
        </mxCell>
        <mxCell id="7HSmxfzW1K2u2CFpWe66-9" value="Why does a record appear in tbl_duplicate_review?" style="rounded=0;whiteSpace=wrap;html=1;fillColor=#dae8fc;strokeColor=#6c8ebf;" vertex="1" parent="1">
          <mxGeometry x="370" y="10" width="120" height="60" as="geometry" />
        </mxCell>
        <mxCell id="7HSmxfzW1K2u2CFpWe66-10" value="" style="strokeWidth=2;html=1;shape=mxgraph.flowchart.annotation_2;align=left;labelPosition=right;pointerEvents=1;rotation=90;" vertex="1" parent="1">
          <mxGeometry x="400" y="-230" width="50" height="690" as="geometry" />
        </mxCell>
        <mxCell id="7HSmxfzW1K2u2CFpWe66-11" value="&lt;div style=&quot;box-sizing: border-box ; font-family: &amp;#34;segoe ui&amp;#34; , , &amp;#34;apple color emoji&amp;#34; , &amp;#34;segoe ui emoji&amp;#34; , sans-serif ; font-size: 14px&quot;&gt;&lt;div style=&quot;box-sizing: border-box ; font-family: &amp;#34;segoe ui&amp;#34; , , &amp;#34;apple color emoji&amp;#34; , &amp;#34;segoe ui emoji&amp;#34; , sans-serif ; font-size: 12px&quot;&gt;Each result below may appear in the notes column in&amp;nbsp;&lt;span&gt;tbl_duplicate_review&lt;/span&gt;&lt;/div&gt;&lt;/div&gt;" style="rounded=0;whiteSpace=wrap;html=1;" vertex="1" parent="1">
          <mxGeometry x="520" y="10" width="140" height="60" as="geometry" />
        </mxCell>
        <mxCell id="7HSmxfzW1K2u2CFpWe66-50" value="&lt;b&gt;Start&lt;/b&gt;" style="text;html=1;strokeColor=none;fillColor=none;align=center;verticalAlign=middle;whiteSpace=wrap;rounded=0;" vertex="1" parent="1">
          <mxGeometry x="326.7" y="30" width="40" height="20" as="geometry" />
        </mxCell>
        <mxCell id="7HSmxfzW1K2u2CFpWe66-88" value="&lt;div style=&quot;box-sizing: border-box ; font-family: &amp;#34;segoe ui&amp;#34; , , &amp;#34;apple color emoji&amp;#34; , &amp;#34;segoe ui emoji&amp;#34; , sans-serif ; font-size: 14px&quot;&gt;&lt;div style=&quot;box-sizing: border-box ; font-family: &amp;#34;segoe ui&amp;#34; , , &amp;#34;apple color emoji&amp;#34; , &amp;#34;segoe ui emoji&amp;#34; , sans-serif ; font-size: 12px&quot;&gt;Refer to&amp;nbsp;&lt;a href=&quot;https://app.diagrams.net/#HNYC-Parks%2FStructures%2Fmaster%2Fduplicate_value_in_system.drawio&quot;&gt;diagram&amp;nbsp;&lt;/a&gt;&lt;/div&gt;&lt;/div&gt;" style="rounded=0;whiteSpace=wrap;html=1;fillColor=#dae8fc;strokeColor=#6c8ebf;" vertex="1" parent="1">
          <mxGeometry x="65" y="281" width="120" height="60" as="geometry" />
        </mxCell>
        <mxCell id="7HSmxfzW1K2u2CFpWe66-89" value="&lt;div style=&quot;box-sizing: border-box ; font-family: &amp;#34;segoe ui&amp;#34; , , &amp;#34;apple color emoji&amp;#34; , &amp;#34;segoe ui emoji&amp;#34; , sans-serif ; font-size: 14px&quot;&gt;&lt;div style=&quot;box-sizing: border-box ; font-family: &amp;#34;segoe ui&amp;#34; , , &amp;#34;apple color emoji&amp;#34; , &amp;#34;segoe ui emoji&amp;#34; , sans-serif ; font-size: 12px&quot;&gt;Refer to &lt;a href=&quot;https://app.diagrams.net/#HNYC-Parks%2FStructures%2Fmaster%2Foverlapping_geometries.drawio&quot;&gt;diagram&lt;/a&gt;.&amp;nbsp;&lt;/div&gt;&lt;/div&gt;" style="rounded=0;whiteSpace=wrap;html=1;fillColor=#dae8fc;strokeColor=#6c8ebf;" vertex="1" parent="1">
          <mxGeometry x="210" y="281" width="120" height="60" as="geometry" />
        </mxCell>
        <mxCell id="7HSmxfzW1K2u2CFpWe66-90" value="&lt;div style=&quot;box-sizing: border-box ; font-family: &amp;#34;segoe ui&amp;#34; , , &amp;#34;apple color emoji&amp;#34; , &amp;#34;segoe ui emoji&amp;#34; , sans-serif ; font-size: 14px&quot;&gt;&lt;div style=&quot;box-sizing: border-box ; font-family: &amp;#34;segoe ui&amp;#34; , , &amp;#34;apple color emoji&amp;#34; , &amp;#34;segoe ui emoji&amp;#34; , sans-serif ; font-size: 12px&quot;&gt;Refer to diagram.&amp;nbsp;&lt;/div&gt;&lt;/div&gt;" style="rounded=0;whiteSpace=wrap;html=1;fillColor=#dae8fc;strokeColor=#6c8ebf;" vertex="1" parent="1">
          <mxGeometry x="365" y="281" width="120" height="60" as="geometry" />
        </mxCell>
        <mxCell id="7HSmxfzW1K2u2CFpWe66-93" value="&lt;div style=&quot;box-sizing: border-box ; font-family: &amp;#34;segoe ui&amp;#34; , , &amp;#34;apple color emoji&amp;#34; , &amp;#34;segoe ui emoji&amp;#34; , sans-serif ; font-size: 14px&quot;&gt;&lt;div style=&quot;box-sizing: border-box ; font-family: &amp;#34;segoe ui&amp;#34; , , &amp;#34;apple color emoji&amp;#34; , &amp;#34;segoe ui emoji&amp;#34; , sans-serif ; font-size: 12px&quot;&gt;Refer to diagram.&amp;nbsp;&lt;/div&gt;&lt;/div&gt;" style="rounded=0;whiteSpace=wrap;html=1;fillColor=#dae8fc;strokeColor=#6c8ebf;" vertex="1" parent="1">
          <mxGeometry x="510" y="281" width="120" height="60" as="geometry" />
        </mxCell>
        <mxCell id="7HSmxfzW1K2u2CFpWe66-94" value="&lt;div style=&quot;box-sizing: border-box ; font-family: &amp;#34;segoe ui&amp;#34; , , &amp;#34;apple color emoji&amp;#34; , &amp;#34;segoe ui emoji&amp;#34; , sans-serif ; font-size: 14px&quot;&gt;&lt;div style=&quot;box-sizing: border-box ; font-family: &amp;#34;segoe ui&amp;#34; , , &amp;#34;apple color emoji&amp;#34; , &amp;#34;segoe ui emoji&amp;#34; , sans-serif ; font-size: 12px&quot;&gt;Refer to diagram.&amp;nbsp;&lt;/div&gt;&lt;/div&gt;" style="rounded=0;whiteSpace=wrap;html=1;fillColor=#dae8fc;strokeColor=#6c8ebf;" vertex="1" parent="1">
          <mxGeometry x="660" y="281" width="120" height="60" as="geometry" />
        </mxCell>
      </root>
    </mxGraphModel>
  </diagram>
</mxfile>
